<svg viewBox="0 0 24 24" fill="none" xmlns="http://www.w3.org/2000/svg">
<path d="M21 12C21 16.9706 16.9706 21 12 21C7.02944 21 3 16.9706 3 12C3 7.02944 7.02944 3 12 3C16.9706 3 21 7.02944 21 12Z" stroke="#ff0900" stroke-width="1.5" stroke-linejoin="round" id="id_107"></path>
<path d="M21 12C21 16.9706 16.9706 21 12 21C7.02944 21 3 16.9706 3 12C3 7.02944 7.02944 3 12 3C16.9706 3 21 7.02944 21 12Z" fill="#ffff00" fill-opacity="0.18" id="id_108"></path>
<path d="M8.75 12H15.25M15.25 12L12.75 9.5M15.25 12L12.75 14.5" stroke="#ff0900" stroke-width="1.5" stroke-linecap="round" stroke-linejoin="round" id="id_109"></path>
</svg>